<svg id="Слой_1" data-name="Слой 1" xmlns="http://www.w3.org/2000/svg" viewBox="0 0 500 500"><defs><style>.cls-1{fill:#fff;stroke:red;stroke-miterlimit:10;stroke-width:30px;}</style></defs><circle class="cls-1" cx="250" cy="250" r="165"/><path d="M190.43,186.76V313.24H158.87V245.43q0-14.69-.71-17.66a6.57,6.57,0,0,0-3.86-4.49q-3.17-1.53-14.1-1.52h-3.13V207q22.89-4.92,34.77-20.25Z"/><path d="M262.93,241.48a22.78,22.78,0,0,1,10.7,8.41q3.75,5.58,3.75,26.61,0,15.33-3,22.59T262.85,311q-8.6,4.65-23.05,4.65-14.06,0-22.26-4.45a26.65,26.65,0,0,1-11.76-11.81q-3.56-7.33-3.55-24.46A99,99,0,0,1,204,255q1.77-8.44,11.06-13.53a18.29,18.29,0,0,1-8.79-8.94q-2.92-6.12-2.93-15.57,0-16.32,9.06-24.48t27.11-8.16q20.87,0,28.83,8.67t8,24.75q0,10.23-2.62,14.75T262.93,241.48Zm-17.11,25.43c0-4.84-.5-8.06-1.48-9.65a5.14,5.14,0,0,0-4.69-2.38,4.8,4.8,0,0,0-4.49,2.31c-.92,1.53-1.37,4.78-1.37,9.72v16.41q0,8.21,1.52,10.55a5.33,5.33,0,0,0,4.81,2.34c2.23,0,3.75-.79,4.53-2.38s1.17-5.17,1.17-10.75Zm-.63-52.58c0-4.27-.37-7.09-1.13-8.47s-2.2-2.07-4.33-2.07-3.49.74-4.22,2.22-1.1,4.26-1.1,8.32v9.61q0,5.72,1.25,7.89a4.47,4.47,0,0,0,4.22,2.19c2.08,0,3.49-.71,4.22-2.15s1.09-4.38,1.09-8.86Z"/><path d="M287.62,240.58h28V212.46h19.07v28.12h28.2v19.07h-28.2v28H315.66v-28h-28Z"/></svg>